<svg width="24" height="14" viewBox="0 0 24 14" fill="none" xmlns="http://www.w3.org/2000/svg" xmlns:xlink="http://www.w3.org/1999/xlink">
<path d="M2.414,-0.414C1.633,-1.195 0.367,-1.195 -0.414,-0.414C-1.195,0.367 -1.195,1.633 -0.414,2.414L2.414,-0.414ZM11,11L9.586,12.414L11,13.828L12.414,12.414L11,11ZM22.414,2.414C23.195,1.633 23.195,0.367 22.414,-0.414C21.633,-1.195 20.367,-1.195 19.586,-0.414L22.414,2.414ZM-0.414,2.414L9.586,12.414L12.414,9.586L2.414,-0.414L-0.414,2.414ZM12.414,12.414L22.414,2.414L19.586,-0.414L9.586,9.586L12.414,12.414Z" transform="rotate(-180 11 6)" fill="#FFFFFF"/>
</svg>
