<svg width="1954" height="1298" viewBox="0 0 1954 1298" fill="none" xmlns="http://www.w3.org/2000/svg" xmlns:xlink="http://www.w3.org/1999/xlink">
<mask id="mask_0_0_53" style="mask-type:alpha" maskUnits="userSpaceOnUse" x="0" y="100" width="964" height="361">
<path d="M0,407C0,298.2 88.2,210 197,210C305.8,210 394,298.2 394,407L394,513C394,621.8 305.8,710 197,710C88.2,710 0,621.8 0,513L0,407Z" fill="#D9D9D9"/>
<path d="M1534,407C1534,298.2 1622.2,210 1731,210C1839.8,210 1928,298.2 1928,407L1928,513C1928,621.8 1839.8,710 1731,710C1622.2,710 1534,621.8 1534,513L1534,407Z" fill="#D9D9D9"/>
<path d="M380,343C380,234.2 468.2,146 577,146C685.8,146 774,234.2 774,343L774,579C774,687.8 685.8,776 577,776C468.2,776 380,687.8 380,579L380,343Z" fill="#D9D9D9"/>
<path d="M1152,343C1152,234.2 1240.2,146 1349,146C1457.8,146 1546,234.2 1546,343L1546,579C1546,687.8 1457.8,776 1349,776C1240.2,776 1152,687.8 1152,579L1152,343Z" fill="#D9D9D9"/>
<path d="M766,297C766,188.2 854.2,100 963,100C1071.8,100 1160,188.2 1160,297L1160,625C1160,733.8 1071.8,822 963,822C854.2,822 766,733.8 766,625L766,297Z" fill="#D9D9D9"/>
</mask>
<g mask="url(#mask_0_0_53)">
<rect  x="6" y="0" width="1948" height="1298" fill="url(#pattern_0_0_54)"/>
</g>
</svg>
