<svg width="40" height="40" viewBox="0 0 40 40" fill="none" xmlns="http://www.w3.org/2000/svg" xmlns:xlink="http://www.w3.org/1999/xlink">
<path d="M20,0C8.955,0 0,8.955 0,20C0,31.045 8.955,40 20,40C31.045,40 40,31.045 40,20C40,8.955 31.045,0 20,0ZM30,20.04C30.007,20.475 29.836,20.893 29.528,21.2L22.944,27.764C22.537,28.171 21.944,28.331 21.388,28.183C20.832,28.033 20.397,27.6 20.248,27.044C20.099,26.488 20.257,25.895 20.664,25.488L24.52,21.628L11.6,21.628C10.716,21.628 10,20.912 10,20.028C10,19.144 10.716,18.428 11.6,18.428L24.556,18.428L20.664,14.536C20.257,14.129 20.097,13.536 20.247,12.979C20.396,12.423 20.831,11.988 21.387,11.839C21.943,11.689 22.537,11.849 22.944,12.256L29.528,18.82C29.832,19.121 30.001,19.532 30,19.96L30,20.04Z" fill="#0CBBC7"/>
</svg>
