<svg width="200" height="200" viewBox="0 0 200 200" fill="none" xmlns="http://www.w3.org/2000/svg" xmlns:xlink="http://www.w3.org/1999/xlink">
<path d="M200,100L100,0L0,100L100,200L200,100Z" fill="#C7BAAF"/>
<path d="M194.656,100L100,5.344L5.344,100L100,194.656L194.656,100Z" fill="#F06A2B"/>
<path d="M188.55,100L100,11.45L11.45,100L100,188.55L188.55,100Z" fill="url(#pf_0_0_85)"/>
<path d="M65.043,130.626L66.628,134.002L70.171,134.543L67.606,137.171L68.213,140.882L65.043,139.13L61.873,140.882L62.479,137.171L59.915,134.543L63.458,134.002L65.043,130.626Z" clip-rule="evenodd" fill-rule="evenodd" fill="#FFCB00"/>
<path d="M135.214,130.626L136.798,134.002L140.342,134.543L137.777,137.171L138.383,140.882L135.214,139.13L132.044,140.882L132.65,137.171L130.086,134.543L133.629,134.002L135.214,130.626Z" clip-rule="evenodd" fill-rule="evenodd" fill="#FFCB00"/>
<path d="M97.639,26.989L101.662,26.989C101.858,26.989 102.018,27.148 102.018,27.345L102.018,27.488C102.018,27.625 101.966,27.757 101.873,27.856L89.228,41.427C89.035,41.634 89.034,41.954 89.227,42.162L99.223,52.95C99.414,53.155 99.415,53.472 99.228,53.679L97.395,55.701C97.195,55.922 96.853,55.939 96.633,55.738C96.621,55.728 96.61,55.717 96.6,55.706L84.007,42.161C83.814,41.954 83.814,41.634 84.006,41.426L97.243,27.161C97.345,27.051 97.489,26.989 97.639,26.989Z" clip-rule="evenodd" fill-rule="evenodd" fill="#F06A2A"/>
<path d="M102.604,58.296L98.598,58.296C98.4,58.296 98.239,58.135 98.239,57.937L98.239,57.786C98.239,57.652 98.289,57.522 98.38,57.423L111.022,43.537C111.21,43.331 111.21,43.016 111.023,42.81L101.036,31.816C100.85,31.611 100.849,31.299 101.034,31.093L102.863,29.052C103.062,28.83 103.403,28.811 103.625,29.01C103.638,29.022 103.651,29.035 103.663,29.048L116.259,42.81C116.448,43.016 116.448,43.332 116.26,43.538L103.003,58.119C102.901,58.232 102.756,58.296 102.604,58.296Z" clip-rule="evenodd" fill-rule="evenodd" fill="#F06A2A"/>
<path d="M100.792,49.659C103.414,49.659 105.482,46.708 105.237,43.552C105.127,42.148 104.276,39.634 103.988,40.081C103.845,40.302 104.168,42.027 104.062,43.082C103.886,44.835 103.223,45.903 102.884,45.279C102.545,44.655 102.661,43.422 102.579,42.125C102.49,40.719 102.257,39.318 101.968,38.449C101.842,38.07 100.655,34.85 99.799,34.546C99.744,34.546 99.709,34.546 99.694,34.546C99.667,34.546 99.588,34.573 99.54,34.615C99.352,34.783 99.636,35.889 98.85,37.235C98.334,38.119 97.33,39.271 96.837,40.403C96.17,41.935 96.051,43.436 96.085,44.229C96.235,47.688 98.17,49.659 100.792,49.659Z" clip-rule="evenodd" fill-rule="evenodd" fill="#F06A2A"/>
<path d="M36.352,80.427L163.65,80.427L183.524,100.128L163.65,119.83L36.352,119.83L16.733,100.128L36.352,80.427Z" clip-rule="evenodd" fill-rule="evenodd" fill="url(#pf_0_0_85)"/>
<path d="M75.831,134.411L78.108,134.19C78.245,134.954 78.522,135.515 78.939,135.874C79.36,136.232 79.927,136.412 80.639,136.412C81.392,136.412 81.959,136.253 82.339,135.937C82.723,135.616 82.916,135.241 82.916,134.814C82.916,134.54 82.834,134.308 82.671,134.119C82.513,133.924 82.233,133.755 81.833,133.613C81.558,133.518 80.934,133.349 79.959,133.106C78.704,132.795 77.824,132.413 77.318,131.96C76.606,131.322 76.25,130.545 76.25,129.627C76.25,129.037 76.416,128.486 76.748,127.975C77.086,127.458 77.568,127.066 78.195,126.797C78.828,126.528 79.59,126.394 80.48,126.394C81.935,126.394 83.029,126.712 83.762,127.35C84.5,127.988 84.887,128.839 84.924,129.904L82.584,130.007C82.484,129.411 82.267,128.984 81.935,128.726C81.609,128.463 81.116,128.331 80.457,128.331C79.777,128.331 79.244,128.47 78.86,128.75C78.612,128.929 78.488,129.169 78.488,129.469C78.488,129.743 78.604,129.978 78.836,130.173C79.131,130.421 79.848,130.679 80.987,130.948C82.125,131.217 82.966,131.496 83.509,131.786C84.057,132.071 84.484,132.463 84.79,132.964C85.101,133.46 85.256,134.074 85.256,134.806C85.256,135.471 85.072,136.093 84.703,136.672C84.334,137.252 83.812,137.685 83.137,137.969C82.462,138.249 81.622,138.388 80.615,138.388C79.149,138.388 78.024,138.051 77.239,137.376C76.453,136.696 75.984,135.708 75.831,134.411Z" fill="#FFFFFF"/>
<path d="M87.146,129.786L89.218,129.786L89.218,131.019C89.486,130.597 89.85,130.255 90.309,129.991C90.767,129.728 91.276,129.596 91.835,129.596C92.81,129.596 93.638,129.978 94.317,130.742C94.997,131.507 95.337,132.571 95.337,133.937C95.337,135.339 94.995,136.43 94.31,137.21C93.624,137.985 92.794,138.372 91.819,138.372C91.355,138.372 90.933,138.28 90.554,138.096C90.18,137.911 89.784,137.595 89.368,137.147L89.368,141.377L87.146,141.377L87.146,129.786ZM89.344,133.842C89.344,134.785 89.531,135.484 89.905,135.937C90.28,136.385 90.736,136.609 91.273,136.609C91.79,136.609 92.22,136.404 92.562,135.992C92.905,135.576 93.076,134.896 93.076,133.953C93.076,133.072 92.9,132.419 92.546,131.992C92.193,131.565 91.756,131.351 91.234,131.351C90.691,131.351 90.24,131.562 89.882,131.984C89.523,132.4 89.344,133.02 89.344,133.842Z" fill="#FFFFFF"/>
<path d="M99.236,138.183L97.014,138.183L97.014,129.786L99.077,129.786L99.077,130.98C99.431,130.416 99.747,130.044 100.026,129.865C100.311,129.685 100.632,129.596 100.991,129.596C101.497,129.596 101.985,129.736 102.454,130.015L101.766,131.952C101.392,131.71 101.044,131.588 100.722,131.588C100.411,131.588 100.147,131.675 99.931,131.849C99.715,132.018 99.544,132.326 99.417,132.774C99.296,133.222 99.236,134.161 99.236,135.589L99.236,138.183Z" fill="#FFFFFF"/>
<path d="M103.418,128.647L103.418,126.591L105.64,126.591L105.64,128.647L103.418,128.647ZM103.418,138.183L103.418,129.786L105.64,129.786L105.64,138.183L103.418,138.183Z" fill="#FFFFFF"/>
<path d="M115.563,138.183L113.341,138.183L113.341,133.897C113.341,132.991 113.294,132.405 113.199,132.142C113.104,131.873 112.949,131.665 112.733,131.517C112.522,131.37 112.266,131.296 111.966,131.296C111.581,131.296 111.236,131.401 110.93,131.612C110.624,131.823 110.413,132.102 110.297,132.45C110.187,132.798 110.131,133.441 110.131,134.379L110.131,138.183L107.909,138.183L107.909,129.786L109.973,129.786L109.973,131.019C110.706,130.07 111.628,129.596 112.741,129.596C113.231,129.596 113.679,129.685 114.085,129.865C114.491,130.039 114.796,130.263 115.002,130.537C115.213,130.811 115.358,131.122 115.437,131.47C115.521,131.818 115.563,132.316 115.563,132.964L115.563,138.183Z" fill="#FFFFFF"/>
<path d="M117.619,138.736L120.157,139.045C120.199,139.34 120.297,139.543 120.45,139.653C120.661,139.812 120.993,139.891 121.446,139.891C122.026,139.891 122.461,139.804 122.751,139.63C122.946,139.514 123.093,139.327 123.193,139.068C123.262,138.884 123.296,138.544 123.296,138.048L123.296,136.823C122.632,137.729 121.794,138.183 120.782,138.183C119.654,138.183 118.76,137.706 118.101,136.752C117.585,135.998 117.327,135.059 117.327,133.937C117.327,132.529 117.664,131.454 118.339,130.711C119.019,129.967 119.862,129.596 120.869,129.596C121.907,129.596 122.764,130.052 123.439,130.964L123.439,129.786L125.518,129.786L125.518,137.321C125.518,138.312 125.436,139.052 125.273,139.543C125.11,140.033 124.88,140.418 124.585,140.697C124.29,140.976 123.894,141.195 123.399,141.353C122.909,141.511 122.287,141.591 121.533,141.591C120.11,141.591 119.1,141.345 118.505,140.855C117.909,140.37 117.611,139.754 117.611,139.005C117.611,138.931 117.614,138.842 117.619,138.736ZM119.604,133.81C119.604,134.701 119.775,135.355 120.118,135.771C120.466,136.182 120.893,136.388 121.399,136.388C121.941,136.388 122.4,136.177 122.774,135.755C123.149,135.328 123.336,134.698 123.336,133.866C123.336,132.996 123.157,132.35 122.798,131.928C122.44,131.507 121.986,131.296 121.438,131.296C120.906,131.296 120.466,131.504 120.118,131.92C119.775,132.332 119.604,132.962 119.604,133.81Z" fill="#FFFFFF"/>
<path d="M90.812,155.551L90.812,157.615L83.024,157.615C83.108,156.834 83.361,156.097 83.783,155.401C84.204,154.7 85.037,153.772 86.281,152.617C87.283,151.684 87.897,151.052 88.124,150.72C88.429,150.261 88.582,149.808 88.582,149.36C88.582,148.864 88.448,148.485 88.179,148.221C87.915,147.952 87.549,147.818 87.08,147.818C86.616,147.818 86.247,147.958 85.973,148.237C85.699,148.516 85.541,148.98 85.499,149.629L83.285,149.407C83.416,148.184 83.83,147.307 84.526,146.774C85.222,146.242 86.092,145.976 87.135,145.976C88.279,145.976 89.178,146.284 89.831,146.901C90.485,147.518 90.812,148.285 90.812,149.202C90.812,149.724 90.717,150.222 90.527,150.696C90.343,151.165 90.048,151.658 89.642,152.175C89.373,152.517 88.888,153.01 88.187,153.653C87.486,154.296 87.04,154.723 86.851,154.934C86.666,155.145 86.516,155.351 86.4,155.551L90.812,155.551Z" fill="#FFFFFF"/>
<path d="M96.078,145.976C97.201,145.976 98.078,146.376 98.711,147.178C99.465,148.126 99.842,149.7 99.842,151.898C99.842,154.091 99.462,155.667 98.703,156.626C98.076,157.417 97.201,157.812 96.078,157.812C94.95,157.812 94.041,157.38 93.35,156.516C92.66,155.646 92.314,154.099 92.314,151.874C92.314,149.692 92.694,148.121 93.453,147.162C94.08,146.371 94.955,145.976 96.078,145.976ZM96.078,147.818C95.809,147.818 95.569,147.905 95.358,148.079C95.148,148.248 94.984,148.553 94.868,148.996C94.715,149.571 94.639,150.538 94.639,151.898C94.639,153.258 94.707,154.194 94.844,154.705C94.981,155.211 95.153,155.548 95.358,155.717C95.569,155.886 95.809,155.97 96.078,155.97C96.347,155.97 96.587,155.886 96.797,155.717C97.008,155.543 97.172,155.235 97.288,154.792C97.441,154.223 97.517,153.258 97.517,151.898C97.517,150.538 97.448,149.605 97.311,149.099C97.174,148.588 97,148.248 96.79,148.079C96.584,147.905 96.347,147.818 96.078,147.818Z" fill="#FFFFFF"/>
<path d="M108.84,155.551L108.84,157.615L101.051,157.615C101.136,156.834 101.389,156.097 101.81,155.401C102.232,154.7 103.065,153.772 104.309,152.617C105.311,151.684 105.925,151.052 106.151,150.72C106.457,150.261 106.61,149.808 106.61,149.36C106.61,148.864 106.475,148.485 106.207,148.221C105.943,147.952 105.577,147.818 105.108,147.818C104.644,147.818 104.275,147.958 104.001,148.237C103.726,148.516 103.568,148.98 103.526,149.629L101.312,149.407C101.444,148.184 101.858,147.307 102.554,146.774C103.249,146.242 104.119,145.976 105.163,145.976C106.307,145.976 107.206,146.284 107.859,146.901C108.513,147.518 108.84,148.285 108.84,149.202C108.84,149.724 108.745,150.222 108.555,150.696C108.37,151.165 108.075,151.658 107.669,152.175C107.401,152.517 106.916,153.01 106.215,153.653C105.513,154.296 105.068,154.723 104.878,154.934C104.694,155.145 104.544,155.351 104.428,155.551L108.84,155.551Z" fill="#FFFFFF"/>
<path d="M116.035,157.615L113.813,157.615L113.813,149.241C113.001,150 112.045,150.562 110.943,150.925L110.943,148.909C111.523,148.719 112.153,148.361 112.833,147.834C113.513,147.301 113.979,146.682 114.232,145.976L116.035,145.976L116.035,157.615Z" fill="#FFFFFF"/>
<path d="M32.259,105.796L32.259,93.276L27.788,93.276L27.788,90.727L39.763,90.727L39.763,93.276L35.302,93.276L35.302,105.796L32.259,105.796Z" fill="#000000"/>
<path d="M39.485,100.184C39.485,99.224 39.722,98.296 40.194,97.398C40.667,96.501 41.335,95.815 42.199,95.342C43.069,94.87 44.039,94.633 45.108,94.633C46.759,94.633 48.113,95.171 49.168,96.247C50.223,97.316 50.751,98.669 50.751,100.307C50.751,101.959 50.216,103.329 49.147,104.419C48.085,105.501 46.746,106.043 45.128,106.043C44.128,106.043 43.172,105.817 42.261,105.364C41.356,104.912 40.667,104.251 40.194,103.381C39.722,102.503 39.485,101.438 39.485,100.184ZM42.446,100.338C42.446,101.421 42.703,102.25 43.216,102.826C43.73,103.401 44.364,103.689 45.118,103.689C45.872,103.689 46.502,103.401 47.009,102.826C47.523,102.25 47.78,101.414 47.78,100.317C47.78,99.248 47.523,98.426 47.009,97.851C46.502,97.275 45.872,96.987 45.118,96.987C44.364,96.987 43.73,97.275 43.216,97.851C42.703,98.426 42.446,99.255 42.446,100.338Z" fill="#000000"/>
<path d="M52.94,94.88L55.633,94.88L55.633,96.483C55.983,95.935 56.456,95.49 57.052,95.147C57.648,94.805 58.309,94.633 59.036,94.633C60.304,94.633 61.379,95.13 62.263,96.124C63.147,97.117 63.589,98.502 63.589,100.276C63.589,102.099 63.144,103.518 62.253,104.532C61.362,105.539 60.283,106.043 59.015,106.043C58.412,106.043 57.864,105.923 57.371,105.683C56.884,105.443 56.37,105.032 55.829,104.45L55.829,109.949L52.94,109.949L52.94,94.88ZM55.798,100.153C55.798,101.38 56.041,102.288 56.528,102.877C57.014,103.459 57.607,103.751 58.306,103.751C58.978,103.751 59.536,103.483 59.981,102.949C60.427,102.408 60.65,101.524 60.65,100.297C60.65,99.153 60.42,98.303 59.961,97.748C59.502,97.193 58.933,96.915 58.255,96.915C57.549,96.915 56.963,97.189 56.497,97.737C56.031,98.279 55.798,99.084 55.798,100.153Z" fill="#000000"/>
<path d="M71.771,105.796L71.771,90.727L76.654,90.727C78.504,90.727 79.71,90.803 80.272,90.953C81.135,91.179 81.858,91.673 82.441,92.434C83.023,93.187 83.315,94.164 83.315,95.363C83.315,96.288 83.147,97.066 82.811,97.696C82.475,98.327 82.047,98.824 81.526,99.187C81.012,99.543 80.488,99.78 79.953,99.896C79.227,100.04 78.175,100.112 76.798,100.112L74.814,100.112L74.814,105.796L71.771,105.796ZM74.814,93.276L74.814,97.552L76.479,97.552C77.678,97.552 78.48,97.474 78.884,97.316C79.289,97.158 79.604,96.912 79.83,96.576C80.063,96.24 80.18,95.85 80.18,95.404C80.18,94.856 80.019,94.404 79.696,94.047C79.374,93.691 78.967,93.468 78.473,93.379C78.11,93.311 77.38,93.276 76.284,93.276L74.814,93.276Z" fill="#000000"/>
<path d="M92.113,102.322L94.992,102.805C94.621,103.86 94.036,104.665 93.234,105.221C92.439,105.769 91.442,106.043 90.243,106.043C88.344,106.043 86.94,105.423 86.028,104.182C85.309,103.189 84.949,101.935 84.949,100.42C84.949,98.611 85.422,97.196 86.367,96.175C87.313,95.147 88.509,94.633 89.955,94.633C91.579,94.633 92.86,95.171 93.799,96.247C94.738,97.316 95.187,98.957 95.146,101.171L87.909,101.171C87.93,102.027 88.163,102.695 88.608,103.175C89.054,103.648 89.609,103.884 90.273,103.884C90.726,103.884 91.106,103.761 91.414,103.514C91.723,103.268 91.956,102.87 92.113,102.322ZM92.278,99.403C92.257,98.567 92.041,97.933 91.63,97.501C91.219,97.062 90.719,96.843 90.13,96.843C89.499,96.843 88.978,97.073 88.567,97.532C88.156,97.991 87.954,98.615 87.961,99.403L92.278,99.403Z" fill="#000000"/>
<path d="M100.275,105.796L97.387,105.796L97.387,94.88L100.069,94.88L100.069,96.432C100.528,95.699 100.94,95.216 101.303,94.983C101.673,94.75 102.091,94.633 102.557,94.633C103.215,94.633 103.849,94.815 104.458,95.178L103.564,97.696C103.078,97.381 102.625,97.223 102.207,97.223C101.803,97.223 101.46,97.337 101.179,97.563C100.898,97.782 100.676,98.183 100.511,98.765C100.354,99.348 100.275,100.568 100.275,102.425L100.275,105.796Z" fill="#000000"/>
<path d="M104.448,94.88L106.052,94.88L106.052,94.058C106.052,93.139 106.148,92.454 106.339,92.002C106.538,91.55 106.898,91.183 107.419,90.902C107.946,90.614 108.611,90.47 109.413,90.47C110.235,90.47 111.04,90.594 111.828,90.84L111.438,92.855C110.979,92.745 110.537,92.69 110.112,92.69C109.694,92.69 109.392,92.79 109.207,92.989C109.029,93.18 108.94,93.554 108.94,94.109L108.94,94.88L111.099,94.88L111.099,97.152L108.94,97.152L108.94,105.796L106.052,105.796L106.052,97.152L104.448,97.152L104.448,94.88Z" fill="#000000"/>
<path d="M112.055,100.184C112.055,99.224 112.291,98.296 112.764,97.398C113.237,96.501 113.905,95.815 114.768,95.342C115.638,94.87 116.608,94.633 117.677,94.633C119.329,94.633 120.682,95.171 121.737,96.247C122.793,97.316 123.32,98.669 123.32,100.307C123.32,101.959 122.786,103.329 121.717,104.419C120.655,105.501 119.315,106.043 117.698,106.043C116.697,106.043 115.741,105.817 114.83,105.364C113.925,104.912 113.237,104.251 112.764,103.381C112.291,102.503 112.055,101.438 112.055,100.184ZM115.015,100.338C115.015,101.421 115.272,102.25 115.786,102.826C116.3,103.401 116.934,103.689 117.687,103.689C118.441,103.689 119.072,103.401 119.579,102.826C120.093,102.25 120.35,101.414 120.35,100.317C120.35,99.248 120.093,98.426 119.579,97.851C119.072,97.275 118.441,96.987 117.687,96.987C116.934,96.987 116.3,97.275 115.786,97.851C115.272,98.426 115.015,99.255 115.015,100.338Z" fill="#000000"/>
<path d="M128.357,105.796L125.469,105.796L125.469,94.88L128.151,94.88L128.151,96.432C128.61,95.699 129.022,95.216 129.385,94.983C129.755,94.75 130.173,94.633 130.639,94.633C131.297,94.633 131.931,94.815 132.54,95.178L131.646,97.696C131.16,97.381 130.707,97.223 130.289,97.223C129.885,97.223 129.542,97.337 129.261,97.563C128.981,97.782 128.758,98.183 128.593,98.765C128.436,99.348 128.357,100.568 128.357,102.425L128.357,105.796Z" fill="#000000"/>
<path d="M133.579,94.88L136.241,94.88L136.241,96.37C137.193,95.212 138.328,94.633 139.643,94.633C140.342,94.633 140.949,94.777 141.463,95.065C141.977,95.353 142.398,95.788 142.727,96.37C143.207,95.788 143.724,95.353 144.279,95.065C144.834,94.777 145.427,94.633 146.057,94.633C146.859,94.633 147.537,94.798 148.093,95.127C148.648,95.449 149.062,95.925 149.336,96.555C149.535,97.021 149.634,97.775 149.634,98.817L149.634,105.796L146.746,105.796L146.746,99.557C146.746,98.474 146.647,97.775 146.448,97.46C146.181,97.049 145.769,96.843 145.214,96.843C144.81,96.843 144.43,96.967 144.073,97.213C143.717,97.46 143.46,97.823 143.303,98.303C143.145,98.776 143.066,99.526 143.066,100.554L143.066,105.796L140.178,105.796L140.178,99.814C140.178,98.752 140.126,98.066 140.024,97.758C139.921,97.45 139.76,97.22 139.54,97.069C139.328,96.919 139.037,96.843 138.667,96.843C138.221,96.843 137.82,96.963 137.464,97.203C137.108,97.443 136.851,97.789 136.693,98.241C136.542,98.693 136.467,99.444 136.467,100.492L136.467,105.796L133.579,105.796L133.579,94.88Z" fill="#000000"/>
<path d="M158.844,102.322L161.722,102.805C161.352,103.86 160.766,104.665 159.965,105.221C159.17,105.769 158.173,106.043 156.974,106.043C155.075,106.043 153.671,105.423 152.759,104.182C152.04,103.189 151.68,101.935 151.68,100.42C151.68,98.611 152.153,97.196 153.098,96.175C154.044,95.147 155.24,94.633 156.686,94.633C158.31,94.633 159.591,95.171 160.53,96.247C161.469,97.316 161.918,98.957 161.877,101.171L154.64,101.171C154.661,102.027 154.894,102.695 155.339,103.175C155.785,103.648 156.34,103.884 157.004,103.884C157.457,103.884 157.837,103.761 158.145,103.514C158.454,103.268 158.687,102.87 158.844,102.322ZM159.009,99.403C158.988,98.567 158.772,97.933 158.361,97.501C157.95,97.062 157.45,96.843 156.86,96.843C156.23,96.843 155.709,97.073 155.298,97.532C154.887,97.991 154.685,98.615 154.692,99.403L159.009,99.403Z" fill="#000000"/>
<path d="M167.006,105.796L164.117,105.796L164.117,94.88L166.8,94.88L166.8,96.432C167.259,95.699 167.67,95.216 168.034,94.983C168.404,94.75 168.822,94.633 169.288,94.633C169.946,94.633 170.579,94.815 171.189,95.178L170.295,97.696C169.808,97.381 169.356,97.223 168.938,97.223C168.534,97.223 168.191,97.337 167.91,97.563C167.629,97.782 167.407,98.183 167.242,98.765C167.085,99.348 167.006,100.568 167.006,102.425L167.006,105.796Z" fill="#000000"/>
<path d="M55.149,66.201C55.111,66.284 55.055,66.326 54.962,66.326C54.907,66.326 54.832,66.284 54.738,66.181C54.646,66.079 54.514,65.979 54.365,65.876C54.197,65.752 54.009,65.652 53.767,65.569C53.525,65.467 53.226,65.425 52.871,65.425C52.515,65.425 52.218,65.489 51.937,65.59C51.677,65.692 51.453,65.854 51.265,66.039C51.078,66.223 50.948,66.446 50.854,66.691C50.761,66.935 50.706,67.202 50.706,67.467C50.706,67.834 50.781,68.121 50.909,68.366C51.041,68.588 51.229,68.793 51.471,68.957C51.695,69.12 51.955,69.262 52.255,69.365C52.554,69.489 52.853,69.589 53.152,69.691C53.45,69.794 53.749,69.916 54.048,70.059C54.347,70.181 54.589,70.365 54.832,70.548C55.074,70.733 55.243,70.999 55.391,71.282C55.524,71.569 55.597,71.936 55.597,72.365C55.597,72.815 55.524,73.222 55.391,73.609C55.261,73.998 55.055,74.345 54.795,74.63C54.534,74.917 54.197,75.139 53.824,75.324C53.431,75.486 53.002,75.569 52.515,75.569C51.882,75.569 51.322,75.446 50.873,75.202C50.406,74.957 50.014,74.608 49.659,74.183L49.847,73.854C49.902,73.771 49.959,73.753 50.032,73.753C50.071,73.753 50.126,73.771 50.182,73.836C50.238,73.896 50.331,73.978 50.406,74.058C50.5,74.14 50.612,74.243 50.742,74.345C50.873,74.445 51.021,74.548 51.19,74.63C51.359,74.712 51.546,74.792 51.77,74.853C51.994,74.917 52.236,74.935 52.515,74.935C52.908,74.935 53.244,74.875 53.543,74.752C53.842,74.63 54.103,74.445 54.308,74.243C54.514,74.038 54.683,73.753 54.795,73.467C54.907,73.162 54.962,72.835 54.962,72.508C54.962,72.141 54.887,71.836 54.758,71.591C54.626,71.344 54.439,71.14 54.197,70.977C53.973,70.815 53.712,70.672 53.413,70.57C53.114,70.468 52.816,70.343 52.515,70.243C52.218,70.141 51.919,70.016 51.62,69.896C51.322,69.772 51.078,69.609 50.836,69.407C50.612,69.202 50.425,68.957 50.276,68.65C50.144,68.344 50.071,67.979 50.071,67.507C50.071,67.162 50.126,66.815 50.256,66.488C50.388,66.159 50.557,65.876 50.797,65.61C51.041,65.365 51.322,65.16 51.677,64.998C52.031,64.855 52.424,64.773 52.871,64.773C53.376,64.773 53.824,64.855 54.233,65.04C54.626,65.222 54.999,65.489 55.336,65.834L55.149,66.201Z" clip-rule="evenodd" fill-rule="evenodd" fill="#FFFFFF"/>
<path d="M66.262,70.17C66.262,69.441 66.161,68.771 65.96,68.183C65.761,67.596 65.478,67.11 65.117,66.705C64.756,66.299 64.314,65.994 63.793,65.773C63.27,65.549 62.707,65.448 62.085,65.448C61.461,65.448 60.901,65.549 60.378,65.773C59.854,65.994 59.414,66.299 59.053,66.705C58.692,67.11 58.39,67.596 58.188,68.183C57.987,68.771 57.886,69.421 57.886,70.17C57.886,70.899 57.987,71.569 58.188,72.156C58.39,72.744 58.67,73.23 59.053,73.637C59.414,74.041 59.854,74.346 60.378,74.569C60.901,74.79 61.461,74.894 62.085,74.894C62.707,74.894 63.289,74.79 63.793,74.569C64.314,74.366 64.756,74.041 65.117,73.637C65.478,73.23 65.761,72.744 65.96,72.156C66.161,71.569 66.262,70.921 66.262,70.17ZM66.932,70.171C66.932,70.983 66.815,71.713 66.579,72.383C66.344,73.053 66.01,73.62 65.58,74.089C65.147,74.553 64.638,74.92 64.047,75.184C63.459,75.449 62.791,75.569 62.066,75.569C61.357,75.569 60.692,75.449 60.101,75.184C59.513,74.92 59.003,74.575 58.569,74.089C58.139,73.62 57.805,73.053 57.569,72.383C57.334,71.713 57.216,70.983 57.216,70.171C57.216,69.361 57.334,68.629 57.569,67.961C57.805,67.29 58.139,66.722 58.569,66.255C59.003,65.788 59.513,65.421 60.101,65.158C60.692,64.895 61.357,64.773 62.066,64.773C62.791,64.773 63.459,64.895 64.047,65.158C64.638,65.421 65.147,65.769 65.58,66.255C66.01,66.722 66.344,67.29 66.579,67.961C66.815,68.629 66.932,69.361 66.932,70.171Z" clip-rule="evenodd" fill-rule="evenodd" fill="#FFFFFF"/>
<path d="M72.89,74.892C73.368,74.892 73.791,74.809 74.175,74.623C74.558,74.437 74.865,74.19 75.133,73.883C75.402,73.576 75.593,73.184 75.726,72.773C75.862,72.341 75.938,71.89 75.938,71.375L75.938,64.773L76.648,64.773L76.648,71.375C76.648,71.971 76.552,72.504 76.381,73.02C76.207,73.533 75.956,73.966 75.632,74.356C75.306,74.726 74.903,75.035 74.443,75.241C73.983,75.445 73.446,75.569 72.871,75.569C72.296,75.569 71.757,75.466 71.297,75.241C70.837,75.015 70.435,74.726 70.107,74.356C69.783,73.986 69.532,73.533 69.361,73.02C69.187,72.504 69.091,71.951 69.091,71.375L69.091,64.773L69.821,64.773L69.821,71.354C69.821,71.848 69.898,72.321 70.032,72.751C70.166,73.184 70.377,73.553 70.626,73.863C70.895,74.172 71.201,74.419 71.585,74.603C71.968,74.809 72.411,74.892 72.89,74.892Z" clip-rule="evenodd" fill-rule="evenodd" fill="#FFFFFF"/>
<path d="M80.834,70.097L81.487,70.097C81.973,70.097 82.417,70.036 82.796,69.932C83.176,69.805 83.514,69.66 83.767,69.433C84.041,69.222 84.232,68.952 84.379,68.662C84.526,68.37 84.591,68.016 84.591,67.644C84.591,66.873 84.338,66.311 83.831,65.937C83.325,65.562 82.585,65.374 81.593,65.374L79.589,65.374L79.589,75.569L78.807,75.569L78.807,64.773L81.593,64.773C82.861,64.773 83.811,65.023 84.421,65.501C85.055,65.977 85.35,66.685 85.35,67.621C85.35,68.038 85.286,68.413 85.14,68.746C84.991,69.077 84.779,69.39 84.506,69.639C84.232,69.889 83.914,70.118 83.535,70.263C83.155,70.431 82.711,70.535 82.249,70.596C82.375,70.68 82.479,70.784 82.585,70.907L86.364,75.569L85.667,75.569C85.582,75.569 85.52,75.546 85.456,75.526C85.393,75.507 85.329,75.442 85.286,75.381L81.784,71.011C81.699,70.907 81.593,70.825 81.51,70.784C81.404,70.741 80.79,70.723 80.581,70.723C80.581,70.159 80.664,70.097 80.834,70.097Z" clip-rule="evenodd" fill-rule="evenodd" fill="#FFFFFF"/>
<path d="M94.066,73.678C94.105,73.678 94.16,73.7 94.179,73.738L94.461,74.064C94.255,74.29 94.047,74.511 93.8,74.695C93.555,74.879 93.292,75.041 93.008,75.163C92.726,75.285 92.403,75.385 92.084,75.469C91.745,75.551 91.366,75.569 90.971,75.569C90.29,75.569 89.667,75.447 89.101,75.183C88.535,74.919 88.043,74.571 87.648,74.084C87.251,73.618 86.93,73.049 86.704,72.377C86.477,71.708 86.364,70.974 86.364,70.161C86.364,69.37 86.477,68.636 86.722,67.967C86.95,67.295 87.29,66.746 87.704,66.258C88.119,65.79 88.63,65.423 89.214,65.159C89.8,64.895 90.461,64.773 91.158,64.773C91.516,64.773 91.837,64.793 92.14,64.855C92.442,64.915 92.708,64.997 92.971,65.099C93.234,65.201 93.461,65.343 93.687,65.505C93.914,65.666 94.142,65.85 94.348,66.054L94.142,66.38C94.105,66.44 94.047,66.462 93.971,66.462C93.934,66.462 93.876,66.44 93.821,66.38C93.763,66.318 93.669,66.258 93.574,66.176C93.481,66.094 93.348,66.014 93.216,65.932C93.084,65.83 92.913,65.748 92.708,65.688C92.518,65.606 92.29,65.547 92.027,65.485C91.782,65.423 91.479,65.403 91.158,65.403C90.554,65.403 90.006,65.505 89.516,65.728C89.027,65.952 88.592,66.258 88.232,66.684C87.874,67.091 87.591,67.599 87.383,68.168C87.177,68.738 87.082,69.408 87.082,70.139C87.082,70.892 87.177,71.544 87.383,72.133C87.591,72.721 87.856,73.211 88.214,73.618C88.574,74.024 88.988,74.328 89.461,74.551C89.932,74.777 90.461,74.879 91.008,74.879C91.366,74.879 91.669,74.857 91.951,74.797C92.234,74.755 92.481,74.675 92.708,74.571C92.934,74.47 93.16,74.35 93.348,74.208C93.555,74.064 93.745,73.902 93.934,73.7C93.952,73.678 93.971,73.658 93.99,73.658C94.008,73.7 94.047,73.678 94.066,73.678Z" clip-rule="evenodd" fill-rule="evenodd" fill="#FFFFFF"/>
<path d="M102.557,64.773L102.557,65.418L96.872,65.418L96.872,69.796L101.599,69.796L101.599,70.421L96.872,70.421L96.872,74.923L102.557,74.923L102.557,75.569L96.08,75.569L96.08,64.773L102.557,64.773Z" clip-rule="evenodd" fill-rule="evenodd" fill="#FFFFFF"/>
<path d="M111.194,64.773L111.194,66.382L106.256,66.382L106.256,69.571L110.417,69.571L110.417,71.178L106.256,71.178L106.256,75.569L104.177,75.569L104.177,64.795L111.194,64.795L111.194,64.773Z" clip-rule="evenodd" fill-rule="evenodd" fill="#FFFFFF"/>
<path d="M121.045,70.171C121.045,69.595 120.964,69.078 120.803,68.624C120.643,68.167 120.425,67.771 120.144,67.451C119.862,67.133 119.502,66.895 119.083,66.717C118.662,66.54 118.201,66.46 117.682,66.46C117.161,66.46 116.7,66.54 116.281,66.717C115.86,66.895 115.52,67.133 115.218,67.451C114.919,67.771 114.699,68.167 114.538,68.624C114.378,69.078 114.298,69.595 114.298,70.171C114.298,70.746 114.378,71.264 114.538,71.72C114.699,72.175 114.919,72.573 115.218,72.891C115.52,73.209 115.86,73.447 116.281,73.626C116.7,73.804 117.161,73.882 117.682,73.882C118.201,73.882 118.662,73.804 119.083,73.626C119.502,73.447 119.843,73.209 120.144,72.891C120.425,72.573 120.643,72.175 120.803,71.72C120.964,71.264 121.045,70.746 121.045,70.171ZM123.069,70.171C123.069,70.948 122.949,71.667 122.688,72.323C122.428,72.98 122.067,73.556 121.584,74.036C121.124,74.513 120.542,74.891 119.879,75.171C119.217,75.449 118.475,75.569 117.672,75.569C116.869,75.569 116.126,75.432 115.463,75.171C114.802,74.891 114.24,74.535 113.759,74.036C113.275,73.556 112.914,72.98 112.654,72.323C112.394,71.667 112.273,70.948 112.273,70.171C112.273,69.396 112.394,68.677 112.654,68.019C112.914,67.361 113.275,66.786 113.759,66.306C114.24,65.828 114.802,65.451 115.463,65.171C116.126,64.893 116.869,64.773 117.672,64.773C118.475,64.773 119.217,64.912 119.879,65.192C120.542,65.472 121.102,65.85 121.584,66.328C122.045,66.805 122.428,67.383 122.688,68.041C122.929,68.677 123.069,69.396 123.069,70.171Z" clip-rule="evenodd" fill-rule="evenodd" fill="#FFFFFF"/>
<path d="M126.673,69.906L127.094,69.906C127.441,69.906 127.735,69.864 127.99,69.763C128.247,69.661 128.448,69.539 128.614,69.375C128.778,69.213 128.905,69.01 128.979,68.784C129.053,68.562 129.107,68.296 129.107,68.031C129.107,67.481 128.943,67.054 128.614,66.77C128.285,66.483 127.79,66.321 127.13,66.321L125.961,66.321L125.961,75.569L124.149,75.569L124.149,64.773L127.112,64.773C127.77,64.773 128.339,64.855 128.814,64.997C129.29,65.138 129.673,65.362 129.968,65.626C130.259,65.893 130.497,66.239 130.626,66.607C130.772,66.992 130.846,67.4 130.846,67.867C130.846,68.235 130.79,68.582 130.698,68.908C130.608,69.233 130.461,69.519 130.277,69.783C130.094,70.048 129.875,70.274 129.601,70.476C129.326,70.681 129.033,70.843 128.686,70.947C128.905,71.087 129.107,71.291 129.272,71.556L131.705,75.549L130.078,75.549C129.912,75.549 129.783,75.509 129.673,75.449C129.563,75.386 129.474,75.286 129.4,75.142L127.369,71.68C127.314,71.598 127.204,71.413 127.094,71.393L126.454,71.393L126.454,70.09C126.472,69.906 126.673,69.906 126.673,69.906Z" clip-rule="evenodd" fill-rule="evenodd" fill="#FFFFFF"/>
<path d="M137.633,74.038C138.063,74.038 138.453,73.997 138.766,73.917C139.078,73.839 139.391,73.72 139.683,73.581L139.683,71.195L138.395,71.195C138.278,71.195 138.18,71.154 138.102,71.095C138.025,71.015 137.985,70.937 137.985,70.837L137.985,69.723L141.421,69.723L141.421,74.457C141.168,74.654 140.894,74.812 140.6,74.953C140.308,75.092 140.015,75.213 139.683,75.311C139.353,75.41 139.021,75.469 138.649,75.51C138.278,75.549 137.887,75.569 137.459,75.569C136.697,75.569 136.014,75.43 135.369,75.172C134.724,74.912 134.177,74.535 133.728,74.058C133.26,73.581 132.909,73.005 132.637,72.348C132.381,71.693 132.245,70.957 132.245,70.181C132.245,69.385 132.362,68.67 132.617,67.994C132.871,67.337 133.222,66.761 133.69,66.284C134.158,65.807 134.724,65.43 135.388,65.172C136.052,64.912 136.795,64.773 137.614,64.773C138.453,64.773 139.195,64.892 139.8,65.15C140.425,65.41 140.934,65.748 141.362,66.145L140.796,67.04C140.679,67.22 140.542,67.32 140.366,67.32C140.249,67.32 140.132,67.279 140.015,67.198C139.859,67.099 139.704,67.019 139.547,66.919C139.391,66.821 139.215,66.743 139.021,66.681C138.825,66.622 138.61,66.563 138.376,66.522C138.142,66.483 137.848,66.464 137.536,66.464C137.029,66.464 136.559,66.542 136.15,66.722C135.739,66.901 135.388,67.14 135.097,67.478C134.803,67.796 134.588,68.193 134.433,68.65C134.275,69.108 134.197,69.624 134.197,70.181C134.197,70.798 134.275,71.334 134.452,71.811C134.628,72.287 134.863,72.686 135.154,73.005C135.448,73.323 135.818,73.581 136.229,73.759C136.638,73.939 137.146,74.038 137.633,74.038Z" clip-rule="evenodd" fill-rule="evenodd" fill="#FFFFFF"/>
<path d="M148.523,71.231L145.141,71.231L145.141,73.959L150.058,73.959L150.058,75.569L143.041,75.569L143.041,64.773L150.058,64.773L150.058,66.385L145.12,66.385L145.12,69.703L149.007,69.703L149.007,70.885C149.007,70.885 148.986,71.231 148.523,71.231Z" clip-rule="evenodd" fill-rule="evenodd" fill="#FFFFFF"/>
<defs>
<linearGradient id="pf_0_0_85" x1="100" y1="0" x2="100" y2="200" gradientUnits="userSpaceOnUse">
<stop stop-color="#1E1E1E"/>
<stop offset="1" stop-color="#0D0D0D"/>
</linearGradient>
<linearGradient id="pf_0_0_85" x1="396.081" y1="78.925" x2="154.754" y2="100" gradientUnits="userSpaceOnUse">
<stop stop-color="#FFCB00"/>
<stop offset="1" stop-color="#F06A2B"/>
</linearGradient>
</defs>
</svg>
